<?xml version="1.0" encoding="utf-8"?>
<!-- Generator: Adobe Illustrator 14.0.0, SVG Export Plug-In . SVG Version: 6.00 Build 43363)  -->
<!DOCTYPE svg PUBLIC "-//W3C//DTD SVG 1.1//EN" "http://www.w3.org/Graphics/SVG/1.1/DTD/svg11.dtd">
<svg version="1.1" id="Layer_1" xmlns="http://www.w3.org/2000/svg" xmlns:xlink="http://www.w3.org/1999/xlink" x="0px" y="0px"
	 width="657px" height="171px" viewBox="0 0 657 171" enable-background="new 0 0 657 171" xml:space="preserve">
<circle fill="#ED1C24" stroke="#000000" cx="36.001" cy="54" r="9"/>
<circle fill="#ED1C24" stroke="#000000" cx="117" cy="27" r="9"/>
<circle fill="#ED1C24" stroke="#000000" cx="162" cy="63" r="9"/>
<circle fill="#ED1C24" stroke="#000000" cx="90" cy="99" r="9"/>
<circle fill="#ED1C24" stroke="#000000" cx="153" cy="116.999" r="9"/>
<line fill="none" stroke="#ED1C24" stroke-width="2" x1="45" y1="54" x2="108" y2="27"/>
<line fill="none" stroke="#ED1C24" stroke-width="2" x1="126" y1="27" x2="162" y2="54"/>
<line fill="none" stroke="#ED1C24" stroke-width="2" x1="153" y1="63" x2="99" y2="99"/>
<text transform="matrix(1 0 0 1 18.0005 62.9995)" font-family="'MyriadPro-Regular'" font-size="12">A</text>
<circle fill="#ED1C24" stroke="#000000" cx="36.001" cy="54" r="9"/>
<circle fill="#ED1C24" stroke="#000000" cx="117" cy="27" r="9"/>
<circle fill="#ED1C24" stroke="#000000" cx="162" cy="63" r="9"/>
<circle fill="#ED1C24" stroke="#000000" cx="90" cy="99" r="9"/>
<circle fill="#ED1C24" stroke="#000000" cx="153" cy="116.999" r="9"/>
<circle fill="#ED1C24" stroke="#000000" cx="36.001" cy="54" r="9"/>
<circle fill="#ED1C24" stroke="#000000" cx="117" cy="27" r="9"/>
<circle fill="#ED1C24" stroke="#000000" cx="162" cy="63" r="9"/>
<circle fill="#ED1C24" stroke="#000000" cx="90" cy="99" r="9"/>
<circle fill="#ED1C24" stroke="#000000" cx="153" cy="116.999" r="9"/>
<text transform="matrix(1 0 0 1 72.0005 107.9995)" font-family="'MyriadPro-Regular'" font-size="12">B</text>
<circle fill="#ED1C24" stroke="#000000" cx="252.001" cy="54" r="9"/>
<circle fill="#ED1C24" stroke="#000000" cx="333" cy="26.999" r="9"/>
<circle fill="#ED1C24" stroke="#000000" cx="378" cy="63" r="9"/>
<circle fill="#ED1C24" stroke="#000000" cx="306" cy="99" r="9"/>
<circle fill="#ED1C24" stroke="#000000" cx="369" cy="116.998" r="9"/>
<text transform="matrix(1 0 0 1 234.0005 62.999)" font-family="'MyriadPro-Regular'" font-size="12">A</text>
<text transform="matrix(1 0 0 1 288.0005 107.999)" font-family="'MyriadPro-Regular'" font-size="12">B</text>
<line fill="none" stroke="#ED1C24" stroke-width="2" x1="261" y1="54" x2="324" y2="27"/>
<line fill="none" stroke="#ED1C24" stroke-width="2" x1="342" y1="27" x2="378" y2="54"/>
<line fill="none" stroke="#ED1C24" stroke-width="2" x1="369" y1="63" x2="261" y2="54"/>
<circle fill="#ED1C24" stroke="#000000" cx="468" cy="54" r="9"/>
<circle fill="#ED1C24" stroke="#000000" cx="549" cy="27" r="9"/>
<circle fill="#ED1C24" stroke="#000000" cx="594" cy="63" r="9"/>
<circle fill="#ED1C24" stroke="#000000" cx="522" cy="99" r="9"/>
<circle fill="#ED1C24" stroke="#000000" cx="585" cy="116.998" r="9"/>
<text transform="matrix(1 0 0 1 450.0005 62.9995)" font-family="'MyriadPro-Regular'" font-size="12">A</text>
<text transform="matrix(1 0 0 1 504.0005 107.9995)" font-family="'MyriadPro-Regular'" font-size="12">B</text>
<line fill="none" stroke="#ED1C24" stroke-width="2" x1="477" y1="54" x2="540" y2="27"/>
<line fill="none" stroke="#ED1C24" stroke-width="2" x1="558" y1="27" x2="594" y2="54"/>
<line fill="none" stroke="#ED1C24" stroke-width="2" x1="585" y1="63" x2="477" y2="54"/>
<line fill="none" stroke="#ED1C24" stroke-width="2" x1="477" y1="54" x2="585" y2="108"/>
<line fill="none" stroke="#ED1C24" stroke-width="2" x1="576" y1="117" x2="531" y2="99"/>
<text transform="matrix(1 0 0 1 72.0005 35.9995)" fill="#ED1C24" font-family="'MyriadPro-It'" font-size="12">a</text>
<text transform="matrix(1 0 0 1 144.0005 35.9995)" fill="#ED1C24" font-family="'MyriadPro-It'" font-size="12">b</text>
<text transform="matrix(1 0 0 1 117.0005 80.9995)" fill="#ED1C24" font-family="'MyriadPro-It'" font-size="12">c</text>
<line fill="none" stroke="#A7A9AC" x1="45" y1="54" x2="153" y2="63"/>
<line fill="none" stroke="#A7A9AC" x1="45" y1="54" x2="153" y2="108"/>
<line fill="none" stroke="#A7A9AC" x1="99" y1="99" x2="144" y2="117"/>
<line fill="none" stroke="#BCBEC0" x1="531" y1="99" x2="594" y2="72"/>
<line fill="none" stroke="#BCBEC0" x1="315" y1="99" x2="378" y2="72"/>
<line fill="none" stroke="#BCBEC0" x1="360" y1="117" x2="315" y2="99"/>
<line fill="none" stroke="#BCBEC0" x1="261" y1="54" x2="369" y2="108"/>
<text transform="matrix(1 0 0 1 108.0005 53.9995)" font-family="'MyriadPro-It'" font-size="12">d</text>
<text transform="matrix(1 0 0 1 72.0005 80.9995)" font-family="'MyriadPro-It'" font-size="12">e</text>
<text transform="matrix(1 0 0 1 117.0005 116.9995)" font-family="'MyriadPro-It'" font-size="12">f</text>
<text transform="matrix(1 0 0 1 288.0005 35.9995)" fill="#ED1C24" font-family="'MyriadPro-It'" font-size="12">a</text>
<text transform="matrix(1 0 0 1 360.0005 35.9995)" fill="#ED1C24" font-family="'MyriadPro-It'" font-size="12">b</text>
<text transform="matrix(1 0 0 1 333.0005 80.9995)" font-family="'MyriadPro-It'" font-size="12">c</text>
<text transform="matrix(1 0 0 1 324.0005 53.9995)" fill="#ED1C24" font-family="'MyriadPro-It'" font-size="12">d</text>
<text transform="matrix(1 0 0 1 288.0005 80.9995)" font-family="'MyriadPro-It'" font-size="12">e</text>
<text transform="matrix(1 0 0 1 333.0005 116.9995)" font-family="'MyriadPro-It'" font-size="12">f</text>
<text transform="matrix(1 0 0 1 504.0005 35.9995)" fill="#ED1C24" font-family="'MyriadPro-It'" font-size="12">a</text>
<text transform="matrix(1 0 0 1 576.0005 35.9995)" fill="#ED1C24" font-family="'MyriadPro-It'" font-size="12">b</text>
<text transform="matrix(1 0 0 1 549.0005 80.9995)" font-family="'MyriadPro-It'" font-size="12">c</text>
<text transform="matrix(1 0 0 1 540.0005 53.9995)" fill="#ED1C24" font-family="'MyriadPro-It'" font-size="12">d</text>
<text transform="matrix(1 0 0 1 504.0005 80.9995)" fill="#ED1C24" font-family="'MyriadPro-It'" font-size="12">e</text>
<text transform="matrix(1 0 0 1 549.0005 116.9995)" fill="#ED1C24" font-family="'MyriadPro-It'" font-size="12">f</text>
<text transform="matrix(1 0 0 1 63.0005 152.9995)" font-family="'MyriadPro-Regular'" font-size="12">(a) Simple path</text>
<text transform="matrix(1 0 0 1 306.0005 152.9995)" font-family="'MyriadPro-Regular'" font-size="12">(b) Cycle</text>
<text transform="matrix(1 0 0 1 441.0005 152.9995)" font-family="'MyriadPro-Regular'" font-size="12">(c) Complex path with self-intersection</text>
</svg>
