<?xml version="1.0" encoding="utf-8"?>
<!-- Generator: Adobe Illustrator 14.0.0, SVG Export Plug-In . SVG Version: 6.00 Build 43363)  -->
<!DOCTYPE svg PUBLIC "-//W3C//DTD SVG 1.1//EN" "http://www.w3.org/Graphics/SVG/1.1/DTD/svg11.dtd">
<svg version="1.1" id="Layer_1" xmlns="http://www.w3.org/2000/svg" xmlns:xlink="http://www.w3.org/1999/xlink" x="0px" y="0px"
	 width="756px" height="387px" viewBox="0 0 756 387" enable-background="new 0 0 756 387" xml:space="preserve">
<g>
	<g>
		<g enable-background="new    ">
			<g>
				<polygon points="354.331,301.818 354.39,310.45 289.098,311.151 289.039,302.519 				"/>
			</g>
			<g>
				<polygon fill="#B62F26" points="354.331,301.818 354.39,310.45 341.403,327.702 341.345,319.07 				"/>
			</g>
			<g>
				<polygon points="289.039,302.519 289.098,311.151 271.736,328.178 271.677,319.546 				"/>
			</g>
			<g>
				
					<rect x="302.225" y="288.79" transform="matrix(-0.0068 -1 1 -0.0068 -14.9953 632.3542)" fill="#B72F27" width="8.632" height="69.669"/>
			</g>
			<g>
				<polygon fill="#CB362D" points="354.331,301.818 341.345,319.07 271.677,319.546 289.039,302.519 				"/>
			</g>
			<g>
				<rect x="301.268" y="287.474" transform="matrix(-0.0068 -1 1 -0.0068 -16.9729 632.4202)" width="8.632" height="74.331"/>
			</g>
			<g>
				<path d="M287.817,301.524l69.432-0.743l-14.529,19.288l-74.33,0.509L287.817,301.524z M341.345,319.07l12.986-17.252
					l-65.292,0.701l-17.362,17.027L341.345,319.07"/>
			</g>
			<g>
				<polygon points="357.249,300.781 357.308,309.413 342.778,328.701 342.72,320.069 				"/>
			</g>
		</g>
	</g>
</g>
<g>
	<g>
		<g enable-background="new    ">
			<g>
				<polygon points="498.333,256.819 498.392,265.451 433.1,266.147 433.041,257.516 				"/>
			</g>
			<g>
				<polygon fill="#69992F" points="498.333,256.819 498.392,265.451 485.396,282.703 485.337,274.071 				"/>
			</g>
			<g>
				<polygon points="433.041,257.516 433.1,266.147 415.738,283.179 415.68,274.547 				"/>
			</g>
			<g>
				
					<rect x="446.222" y="243.795" transform="matrix(-0.0069 -1 1 -0.0069 175.0284 731.0746)" fill="#699A2F" width="8.632" height="69.66"/>
			</g>
			<g>
				<polygon fill="#76AA35" points="498.333,256.819 485.337,274.071 415.68,274.547 433.041,257.516 				"/>
			</g>
			<g>
				<rect x="445.266" y="242.47" transform="matrix(-0.0069 -1 1 -0.0069 173.0506 731.1407)" width="8.632" height="74.34"/>
			</g>
			<g>
				<path d="M431.811,256.52l69.439-0.743l-14.529,19.293l-74.338,0.509L431.811,256.52z M485.337,274.071l12.996-17.252
					l-65.292,0.697l-17.361,17.031L485.337,274.071"/>
			</g>
			<g>
				<polygon points="501.25,255.777 501.31,264.408 486.78,283.702 486.721,275.07 				"/>
			</g>
		</g>
	</g>
</g>
<g>
	<g>
		<g enable-background="new    ">
			<g>
				<polygon points="714.333,256.819 714.392,265.451 649.1,266.147 649.041,257.516 				"/>
			</g>
			<g>
				<polygon fill="#69992F" points="714.333,256.819 714.392,265.451 701.396,282.703 701.337,274.071 				"/>
			</g>
			<g>
				<polygon points="649.041,257.516 649.1,266.147 631.738,283.179 631.68,274.547 				"/>
			</g>
			<g>
				
					<rect x="662.222" y="243.795" transform="matrix(-0.0069 -1 1 -0.0069 392.519 947.0695)" fill="#699A2F" width="8.632" height="69.66"/>
			</g>
			<g>
				<polygon fill="#76AA35" points="714.333,256.819 701.337,274.071 631.68,274.547 649.041,257.516 				"/>
			</g>
			<g>
				<rect x="661.266" y="242.47" transform="matrix(-0.0069 -1 1 -0.0069 390.5413 947.1356)" width="8.632" height="74.34"/>
			</g>
			<g>
				<path d="M647.811,256.52l69.439-0.743l-14.529,19.293l-74.338,0.509L647.811,256.52z M701.337,274.071l12.996-17.252
					l-65.292,0.697l-17.361,17.031L701.337,274.071"/>
			</g>
			<g>
				<polygon points="717.25,255.777 717.31,264.408 702.78,283.702 702.721,275.07 				"/>
			</g>
		</g>
	</g>
</g>
<g>
	<g>
		<g enable-background="new    ">
			<g>
				<polygon points="606.333,346.819 606.392,355.451 541.1,356.147 541.041,347.516 				"/>
			</g>
			<g>
				<polygon fill="#69992F" points="606.333,346.819 606.392,355.451 593.396,372.703 593.337,364.071 				"/>
			</g>
			<g>
				<polygon points="541.041,347.516 541.1,356.147 523.738,373.179 523.68,364.547 				"/>
			</g>
			<g>
				
					<rect x="554.222" y="333.795" transform="matrix(-0.0069 -1 1 -0.0069 193.7758 929.6932)" fill="#699A2F" width="8.632" height="69.66"/>
			</g>
			<g>
				<polygon fill="#76AA35" points="606.333,346.819 593.337,364.071 523.68,364.547 541.041,347.516 				"/>
			</g>
			<g>
				<rect x="553.266" y="332.47" transform="matrix(-0.0069 -1 1 -0.0069 191.7981 929.7593)" width="8.632" height="74.34"/>
			</g>
			<g>
				<path d="M539.811,346.52l69.439-0.743l-14.529,19.293l-74.338,0.509L539.811,346.52z M593.337,364.071l12.996-17.252
					l-65.292,0.697l-17.361,17.031L593.337,364.071"/>
			</g>
			<g>
				<polygon points="609.25,345.777 609.31,354.408 594.78,373.702 594.721,365.07 				"/>
			</g>
		</g>
	</g>
</g>
<line fill="none" stroke="#000000" stroke-width="3" x1="369" y1="315" x2="747" y2="315"/>
<line fill="none" stroke="#000000" stroke-width="3" x1="459" y1="315" x2="459" y2="288"/>
<line fill="none" stroke="#000000" stroke-width="3" x1="567" y1="342" x2="567" y2="315"/>
<line fill="none" stroke="#000000" stroke-width="3" x1="675" y1="315" x2="675" y2="288"/>
<circle fill="#EF4136" stroke="#000000" stroke-width="2" cx="315" cy="117" r="27"/>
<g>
	<g>
		<g enable-background="new    ">
			<g>
				<polygon points="102.331,301.818 102.39,310.45 37.098,311.151 37.039,302.52 				"/>
			</g>
			<g>
				<polygon fill="#0087BA" points="102.331,301.818 102.39,310.45 89.403,327.702 89.345,319.07 				"/>
			</g>
			<g>
				
					<rect x="50.225" y="288.79" transform="matrix(-0.0068 -1 1 -0.0068 -268.7058 380.36)" fill="#0088BB" width="8.632" height="69.669"/>
			</g>
			<g>
				<polygon points="37.039,302.52 37.098,311.151 19.736,328.178 19.677,319.546 				"/>
			</g>
			<g>
				<polygon fill="#0095CD" points="102.331,301.818 89.345,319.07 19.677,319.546 37.039,302.52 				"/>
			</g>
			<g>
				<rect x="49.268" y="287.474" transform="matrix(-0.0068 -1 1 -0.0068 -270.6835 380.426)" width="8.632" height="74.331"/>
			</g>
			<g>
				<path d="M35.817,301.524l69.432-0.743L90.72,320.069l-74.33,0.509L35.817,301.524z M89.345,319.07l12.986-17.252l-65.292,0.702
					l-17.362,17.026L89.345,319.07"/>
			</g>
			<g>
				<polygon points="105.249,300.781 105.308,309.413 90.778,328.701 90.72,320.069 				"/>
			</g>
		</g>
	</g>
</g>
<line fill="none" stroke="#000000" stroke-width="2" x1="117" y1="315" x2="261" y2="315"/>
<circle fill="#8DC63F" stroke="#000000" stroke-width="2" cx="477" cy="45" r="27"/>
<circle fill="#8DC63F" stroke="#000000" stroke-width="2" cx="567" cy="180" r="27"/>
<circle fill="#8DC63F" stroke="#000000" stroke-width="2" cx="684" cy="99" r="27"/>
<line fill="none" stroke="#000000" stroke-width="2" stroke-dasharray="12,6" x1="459" y1="99" x2="459" y2="243"/>
<line fill="none" stroke="#000000" stroke-width="2" stroke-dasharray="12,6" x1="684" y1="135" x2="684" y2="252"/>
<line fill="none" stroke="#000000" stroke-width="2" stroke-dasharray="12,6" x1="315" y1="153" x2="315" y2="297"/>
<line fill="none" stroke="#000000" stroke-width="2" stroke-dasharray="12,6" x1="567" y1="216" x2="567" y2="306"/>
<g>
	<g>
		<line fill="none" stroke="#000000" stroke-width="2" x1="351" y1="90" x2="414.001" y2="63"/>
		<path d="M425.096,58.245c-4.391,4.175-9.451,10.255-11.966,15.475l-0.585-10.096l-6.907-7.386
			C411.151,58.016,419.045,58.546,425.096,58.245z"/>
		<path d="M339.906,94.755c4.39-4.174,9.451-10.255,11.965-15.475l0.585,10.096l6.907,7.386
			C353.85,94.983,345.957,94.454,339.906,94.755z"/>
	</g>
</g>
<g>
	<g>
		<line fill="none" stroke="#000000" stroke-width="2" x1="360" y1="108" x2="639.001" y2="90"/>
		<path d="M651.046,89.223c-5.532,2.468-12.333,6.51-16.445,10.59l2.819-9.711l-4.044-9.269
			C637.979,84.351,645.242,87.486,651.046,89.223z"/>
		<path d="M347.955,108.777c5.532-2.469,12.333-6.511,16.446-10.591l-2.82,9.711l4.045,9.269
			C361.022,113.649,353.759,110.514,347.955,108.777z"/>
	</g>
</g>
<g>
	<g>
		<line fill="none" stroke="#000000" stroke-width="2" x1="360" y1="135" x2="522" y2="171"/>
		<path d="M533.783,173.619c-6.002,0.825-13.661,2.806-18.75,5.575l5.421-8.538l-1.295-10.029
			C522.597,165.291,528.695,170.33,533.783,173.619z"/>
		<path d="M348.218,132.381c6.001-0.825,13.661-2.806,18.75-5.575l-5.42,8.537l1.294,10.029
			C359.404,140.709,353.305,135.67,348.218,132.381z"/>
	</g>
</g>
<circle fill="#00AEEF" stroke="#000000" stroke-width="2" cx="63" cy="117" r="27"/>
<g>
	<g>
		<line fill="none" stroke="#000000" stroke-width="2" x1="108" y1="117" x2="270" y2="117"/>
		<path d="M282.071,117c-5.68,2.107-12.727,5.703-17.094,9.51l3.439-9.51l-3.439-9.51C269.344,111.297,276.391,114.894,282.071,117z
			"/>
		<path d="M95.93,117c5.68-2.107,12.727-5.703,17.094-9.51l-3.439,9.51l3.439,9.51C108.657,122.703,101.61,119.106,95.93,117z"/>
	</g>
</g>
<line fill="none" stroke="#000000" stroke-width="2" stroke-dasharray="12,6" x1="63" y1="153" x2="63" y2="297"/>
<text transform="matrix(1 0 0 1 36.0005 351.0005)" font-family="'MyriadPro-Regular'" font-size="12">Client</text>
<text transform="matrix(1 0 0 1 279.0005 351.0005)" font-family="'MyriadPro-Regular'" font-size="12">Cluster head</text>
<text transform="matrix(1 0 0 1 630 350.9995)"><tspan x="0" y="0" font-family="'MyriadPro-Regular'" font-size="12">Cluster worke</tspan><tspan x="68.591" y="0" font-family="'MyriadPro-Regular'" font-size="12">r</tspan><tspan x="72.274" y="0" font-family="'MyriadPro-Regular'" font-size="12">s</tspan></text>
<text transform="matrix(1 0 0 1 288 80.9995)" font-family="'MyriadPro-Regular'" font-size="12">Controller</text>
<text transform="matrix(1 0 0 1 522 44.9995)" font-family="'MyriadPro-Regular'" font-size="12">Engines</text>
<text transform="matrix(1 0 0 1 36 80.9995)" font-family="'MyriadPro-Regular'" font-size="12">Notebook</text>
<circle fill="#8DC63F" stroke="#000000" stroke-width="2" cx="468" cy="54" r="27"/>
<circle fill="#8DC63F" stroke="#000000" stroke-width="2" cx="459" cy="63" r="27"/>
</svg>
