<?xml version="1.0" encoding="utf-8"?>
<!-- Generator: Adobe Illustrator 14.0.0, SVG Export Plug-In . SVG Version: 6.00 Build 43363)  -->
<!DOCTYPE svg PUBLIC "-//W3C//DTD SVG 1.1//EN" "http://www.w3.org/Graphics/SVG/1.1/DTD/svg11.dtd">
<svg version="1.1" id="Layer_1" xmlns="http://www.w3.org/2000/svg" xmlns:xlink="http://www.w3.org/1999/xlink" x="0px" y="0px"
	 width="864px" height="387px" viewBox="0 0 864 387" enable-background="new 0 0 864 387" xml:space="preserve">
<g>
	<g>
		<g enable-background="new    ">
			<g>
				<polygon points="462.331,301.818 462.39,310.45 397.098,311.151 397.039,302.519 				"/>
			</g>
			<g>
				<polygon fill="#B62F26" points="462.331,301.818 462.39,310.45 449.403,327.702 449.345,319.07 				"/>
			</g>
			<g>
				<polygon points="397.039,302.519 397.098,311.151 379.736,328.178 379.677,319.546 				"/>
			</g>
			<g>
				
					<rect x="410.225" y="288.79" transform="matrix(-0.0068 -1 1 -0.0068 93.7378 740.3517)" fill="#B72F27" width="8.632" height="69.669"/>
			</g>
			<g>
				<polygon fill="#CB362D" points="462.331,301.818 449.345,319.07 379.677,319.546 397.039,302.519 				"/>
			</g>
			<g>
				<rect x="409.268" y="287.474" transform="matrix(-0.0068 -1 1 -0.0068 91.7602 740.4177)" width="8.632" height="74.331"/>
			</g>
			<g>
				<path d="M395.817,301.524l69.432-0.743l-14.529,19.288l-74.33,0.509L395.817,301.524z M449.345,319.07l12.986-17.252
					l-65.292,0.701l-17.362,17.027L449.345,319.07"/>
			</g>
			<g>
				<polygon points="465.249,300.781 465.308,309.413 450.778,328.701 450.72,320.069 				"/>
			</g>
		</g>
	</g>
</g>
<g>
	<g>
		<g enable-background="new    ">
			<g>
				<polygon points="606.333,256.819 606.392,265.451 541.1,266.147 541.041,257.516 				"/>
			</g>
			<g>
				<polygon fill="#69992F" points="606.333,256.819 606.392,265.451 593.396,282.703 593.337,274.071 				"/>
			</g>
			<g>
				<polygon points="541.041,257.516 541.1,266.147 523.738,283.179 523.68,274.547 				"/>
			</g>
			<g>
				
					<rect x="554.222" y="243.795" transform="matrix(-0.0069 -1 1 -0.0069 283.7737 839.0721)" fill="#699A2F" width="8.632" height="69.66"/>
			</g>
			<g>
				<polygon fill="#76AA35" points="606.333,256.819 593.337,274.071 523.68,274.547 541.041,257.516 				"/>
			</g>
			<g>
				<rect x="553.266" y="242.47" transform="matrix(-0.0069 -1 1 -0.0069 281.7959 839.1382)" width="8.632" height="74.34"/>
			</g>
			<g>
				<path d="M539.811,256.52l69.439-0.743l-14.529,19.293l-74.338,0.509L539.811,256.52z M593.337,274.071l12.996-17.252
					l-65.292,0.697l-17.361,17.031L593.337,274.071"/>
			</g>
			<g>
				<polygon points="609.25,255.777 609.31,264.408 594.78,283.702 594.721,275.07 				"/>
			</g>
		</g>
	</g>
</g>
<g>
	<g>
		<g enable-background="new    ">
			<g>
				<polygon points="822.333,256.819 822.392,265.451 757.1,266.147 757.041,257.516 				"/>
			</g>
			<g>
				<polygon fill="#69992F" points="822.333,256.819 822.392,265.451 809.396,282.703 809.337,274.071 				"/>
			</g>
			<g>
				<polygon points="757.041,257.516 757.1,266.147 739.738,283.179 739.68,274.547 				"/>
			</g>
			<g>
				
					<rect x="770.222" y="243.795" transform="matrix(-0.0069 -1 1 -0.0069 501.2643 1055.0669)" fill="#699A2F" width="8.632" height="69.66"/>
			</g>
			<g>
				<polygon fill="#76AA35" points="822.333,256.819 809.337,274.071 739.68,274.547 757.041,257.516 				"/>
			</g>
			<g>
				<rect x="769.266" y="242.47" transform="matrix(-0.0069 -1 1 -0.0069 499.2866 1055.1331)" width="8.632" height="74.34"/>
			</g>
			<g>
				<path d="M755.811,256.52l69.439-0.743l-14.529,19.293l-74.338,0.509L755.811,256.52z M809.337,274.071l12.996-17.252
					l-65.292,0.697l-17.361,17.031L809.337,274.071"/>
			</g>
			<g>
				<polygon points="825.25,255.777 825.31,264.408 810.78,283.702 810.721,275.07 				"/>
			</g>
		</g>
	</g>
</g>
<g>
	<g>
		<g enable-background="new    ">
			<g>
				<polygon points="714.333,346.819 714.392,355.451 649.1,356.147 649.041,347.516 				"/>
			</g>
			<g>
				<polygon fill="#69992F" points="714.333,346.819 714.392,355.451 701.396,372.703 701.337,364.071 				"/>
			</g>
			<g>
				<polygon points="649.041,347.516 649.1,356.147 631.738,373.179 631.68,364.547 				"/>
			</g>
			<g>
				
					<rect x="662.222" y="333.795" transform="matrix(-0.0069 -1 1 -0.0069 302.5212 1037.6907)" fill="#699A2F" width="8.632" height="69.66"/>
			</g>
			<g>
				<polygon fill="#76AA35" points="714.333,346.819 701.337,364.071 631.68,364.547 649.041,347.516 				"/>
			</g>
			<g>
				<rect x="661.266" y="332.47" transform="matrix(-0.0069 -1 1 -0.0069 300.5434 1037.7567)" width="8.632" height="74.34"/>
			</g>
			<g>
				<path d="M647.811,346.52l69.439-0.743l-14.529,19.293l-74.338,0.509L647.811,346.52z M701.337,364.071l12.996-17.252
					l-65.292,0.697l-17.361,17.031L701.337,364.071"/>
			</g>
			<g>
				<polygon points="717.25,345.777 717.31,354.408 702.78,373.702 702.721,365.07 				"/>
			</g>
		</g>
	</g>
</g>
<line fill="none" stroke="#000000" stroke-width="3" x1="477" y1="315" x2="855" y2="315"/>
<line fill="none" stroke="#000000" stroke-width="3" x1="567" y1="315" x2="567" y2="288"/>
<line fill="none" stroke="#000000" stroke-width="3" x1="675" y1="342" x2="675" y2="315"/>
<line fill="none" stroke="#000000" stroke-width="3" x1="783" y1="315" x2="783" y2="288"/>
<circle fill="#EF4136" stroke="#000000" stroke-width="2" cx="423" cy="117" r="27"/>
<g>
	<g>
		<g enable-background="new    ">
			<g>
				<polygon points="210.331,301.818 210.39,310.45 145.098,311.151 145.039,302.52 				"/>
			</g>
			<g>
				<polygon fill="#0087BA" points="210.331,301.818 210.39,310.45 197.403,327.702 197.345,319.07 				"/>
			</g>
			<g>
				
					<rect x="158.225" y="288.79" transform="matrix(-0.0068 -1 1 -0.0068 -159.9727 488.3575)" fill="#0088BB" width="8.632" height="69.669"/>
			</g>
			<g>
				<polygon points="145.039,302.52 145.098,311.151 127.736,328.178 127.677,319.546 				"/>
			</g>
			<g>
				<polygon fill="#0095CD" points="210.331,301.818 197.345,319.07 127.677,319.546 145.039,302.52 				"/>
			</g>
			<g>
				<rect x="157.268" y="287.474" transform="matrix(-0.0068 -1 1 -0.0068 -161.9504 488.4235)" width="8.632" height="74.331"/>
			</g>
			<g>
				<path d="M143.817,301.524l69.432-0.743l-14.529,19.288l-74.33,0.509L143.817,301.524z M197.345,319.07l12.986-17.252
					l-65.292,0.702l-17.362,17.026L197.345,319.07"/>
			</g>
			<g>
				<polygon points="213.249,300.781 213.308,309.413 198.778,328.701 198.72,320.069 				"/>
			</g>
		</g>
	</g>
</g>
<line fill="none" stroke="#000000" stroke-width="2" x1="225" y1="315" x2="369" y2="315"/>
<circle fill="#8DC63F" stroke="#000000" stroke-width="2" cx="585" cy="45" r="27"/>
<circle fill="#8DC63F" stroke="#000000" stroke-width="2" cx="675" cy="180" r="27"/>
<circle fill="#8DC63F" stroke="#000000" stroke-width="2" cx="792" cy="99" r="27"/>
<line fill="none" stroke="#000000" stroke-width="2" stroke-dasharray="12,6" x1="567" y1="99" x2="567" y2="243"/>
<line fill="none" stroke="#000000" stroke-width="2" stroke-dasharray="12,6" x1="792" y1="135" x2="792" y2="252"/>
<line fill="none" stroke="#000000" stroke-width="2" stroke-dasharray="12,6" x1="423" y1="153" x2="423" y2="297"/>
<line fill="none" stroke="#000000" stroke-width="2" stroke-dasharray="12,6" x1="675" y1="216" x2="675" y2="306"/>
<g>
	<g>
		<line fill="none" stroke="#000000" stroke-width="2" x1="459" y1="90" x2="522.001" y2="63"/>
		<path d="M533.096,58.245c-4.391,4.175-9.451,10.255-11.966,15.475l-0.585-10.096l-6.907-7.386
			C519.151,58.016,527.045,58.546,533.096,58.245z"/>
		<path d="M447.906,94.755c4.39-4.174,9.451-10.255,11.965-15.475l0.585,10.096l6.907,7.386
			C461.85,94.983,453.957,94.454,447.906,94.755z"/>
	</g>
</g>
<g>
	<g>
		<line fill="none" stroke="#000000" stroke-width="2" x1="468" y1="108" x2="747.001" y2="90"/>
		<path d="M759.046,89.223c-5.532,2.468-12.333,6.51-16.445,10.59l2.819-9.711l-4.044-9.269
			C745.979,84.351,753.242,87.486,759.046,89.223z"/>
		<path d="M455.955,108.777c5.532-2.469,12.333-6.511,16.446-10.591l-2.82,9.711l4.045,9.269
			C469.022,113.649,461.759,110.514,455.955,108.777z"/>
	</g>
</g>
<g>
	<g>
		<line fill="none" stroke="#000000" stroke-width="2" x1="468" y1="135" x2="630" y2="171"/>
		<path d="M641.783,173.619c-6.002,0.825-13.661,2.806-18.75,5.575l5.421-8.538l-1.295-10.029
			C630.597,165.291,636.695,170.33,641.783,173.619z"/>
		<path d="M456.218,132.381c6.001-0.825,13.661-2.806,18.75-5.575l-5.42,8.537l1.294,10.029
			C467.404,140.709,461.305,135.67,456.218,132.381z"/>
	</g>
</g>
<circle fill="#00AEEF" stroke="#000000" stroke-width="2" cx="171" cy="117" r="27"/>
<g>
	<g>
		<line fill="none" stroke="#000000" stroke-width="2" x1="216" y1="117" x2="378" y2="117"/>
		<path d="M390.071,117c-5.68,2.107-12.727,5.703-17.094,9.51l3.439-9.51l-3.439-9.51C377.344,111.297,384.391,114.894,390.071,117z
			"/>
		<path d="M203.93,117c5.68-2.107,12.727-5.703,17.094-9.51l-3.439,9.51l3.439,9.51C216.657,122.703,209.61,119.106,203.93,117z"/>
	</g>
</g>
<line fill="none" stroke="#000000" stroke-width="2" stroke-dasharray="12,6" x1="171" y1="153" x2="171" y2="297"/>
<text transform="matrix(1 0 0 1 144.0005 351.0005)" font-family="'MyriadPro-Regular'" font-size="12">Client</text>
<text transform="matrix(1 0 0 1 387.0005 351.0005)" font-family="'MyriadPro-Regular'" font-size="12">Cluster head</text>
<text transform="matrix(1 0 0 1 720 368.9995)"><tspan x="0" y="0" font-family="'MyriadPro-Regular'" font-size="12">Cluster worke</tspan><tspan x="68.591" y="0" font-family="'MyriadPro-Regular'" font-size="12">r</tspan><tspan x="72.274" y="0" font-family="'MyriadPro-Regular'" font-size="12">s</tspan></text>
<text transform="matrix(1 0 0 1 396 80.999)" font-family="'MyriadPro-Regular'" font-size="12">Controller</text>
<text transform="matrix(1 0 0 1 630 44.999)" font-family="'MyriadPro-Regular'" font-size="12">Engines</text>
<text transform="matrix(1 0 0 1 144 80.999)" font-family="'MyriadPro-Regular'" font-size="12">Notebook</text>
<circle fill="#8DC63F" stroke="#000000" stroke-width="2" cx="576" cy="54" r="27"/>
<circle fill="#8DC63F" stroke="#000000" stroke-width="2" cx="567" cy="63" r="27"/>
<line stroke="#000000" stroke-width="2" stroke-dasharray="2,2" x1="9" y1="216" x2="855" y2="216"/>
<text transform="matrix(1 0 0 1 9 206.9995)" font-family="'MyriadPro-It'" font-size="12">Logical architecture</text>
<text transform="matrix(1 0 0 1 9 233.9995)" font-family="'MyriadPro-It'" font-size="12">Physical architecture</text>
<text transform="matrix(1 0 0 1 594 305.9995)" font-family="'MyriadPro-Regular'" font-size="12">Interconnect</text>
</svg>
