<?xml version="1.0" encoding="utf-8"?>
<!-- Generator: Adobe Illustrator 14.0.0, SVG Export Plug-In . SVG Version: 6.00 Build 43363)  -->
<!DOCTYPE svg PUBLIC "-//W3C//DTD SVG 1.1//EN" "http://www.w3.org/Graphics/SVG/1.1/DTD/svg11.dtd">
<svg version="1.1" id="Layer_1" xmlns="http://www.w3.org/2000/svg" xmlns:xlink="http://www.w3.org/1999/xlink" x="0px" y="0px"
	 width="486px" height="279px" viewBox="0 0 486 279" enable-background="new 0 0 486 279" xml:space="preserve">
<g>
	<g>
		<g enable-background="new    ">
			<g>
				<polygon points="255.334,211.819 255.393,220.451 190.093,221.152 190.034,212.521 				"/>
			</g>
			<g>
				<polygon fill="#0087BA" points="255.334,211.819 255.393,220.451 242.398,237.703 242.338,229.071 				"/>
			</g>
			<g>
				<polygon points="190.034,212.521 190.093,221.152 172.74,238.179 172.681,229.547 				"/>
			</g>
			<g>
				
					<rect x="203.223" y="198.795" transform="matrix(-0.0069 -1 1 -0.0069 -24.6481 442.7714)" fill="#0088BB" width="8.632" height="69.66"/>
			</g>
			<g>
				<path d="M188.812,211.52l69.44-0.743l-14.529,19.293l-74.337,0.509L188.812,211.52z M242.338,229.071l12.996-17.252
					l-65.301,0.702l-17.353,17.026L242.338,229.071"/>
			</g>
			<g>
				<polygon fill="#0095CD" points="255.334,211.819 242.338,229.071 172.681,229.547 190.034,212.521 				"/>
			</g>
			<g>
				<rect x="202.267" y="197.47" transform="matrix(-0.0069 -1 1 -0.0069 -26.6259 442.8375)" width="8.632" height="74.34"/>
			</g>
			<g>
				<polygon points="258.251,210.777 258.311,219.408 243.782,238.702 243.722,230.07 				"/>
			</g>
		</g>
	</g>
</g>
<text transform="matrix(1 0 0 1 189.001 261.0015)" font-family="'MyriadPro-Regular'" font-size="12">Client</text>
<circle fill="#EF4136" stroke="#000000" stroke-width="2" cx="216" cy="63" r="27"/>
<line fill="none" stroke="#000000" stroke-width="2" stroke-dasharray="12,6" x1="216" y1="99" x2="216" y2="207"/>
<circle fill="#00AEEF" stroke="#000000" stroke-width="2" cx="45" cy="63" r="27"/>
<g>
	<g>
		<line fill="none" stroke="#000000" stroke-width="2" x1="90" y1="63" x2="171" y2="63"/>
		<path d="M183.071,63c-5.68,2.107-12.727,5.703-17.094,9.51l3.439-9.51l-3.439-9.51C170.344,57.297,177.391,60.894,183.071,63z"/>
		<path d="M77.93,63c5.68-2.107,12.727-5.703,17.094-9.51L91.584,63l3.439,9.51C90.657,68.704,83.61,65.107,77.93,63z"/>
	</g>
</g>
<text transform="matrix(1 0 0 1 189.0005 27.0005)" font-family="'MyriadPro-Regular'" font-size="12">Controller</text>
<text transform="matrix(1 0 0 1 432.0005 63.0005)" font-family="'MyriadPro-Regular'" font-size="12">Engines</text>
<text transform="matrix(1 0 0 1 18.0005 27.0005)" font-family="'MyriadPro-Regular'" font-size="12">Notebook</text>
<circle fill="#8DC63F" stroke="#000000" stroke-width="2" cx="396" cy="54" r="27"/>
<circle fill="#8DC63F" stroke="#000000" stroke-width="2" cx="387" cy="63" r="27"/>
<g>
	<g>
		<line fill="none" stroke="#000000" stroke-width="2" x1="261" y1="63" x2="342" y2="63"/>
		<path d="M354.071,63c-5.68,2.107-12.727,5.703-17.094,9.51l3.439-9.51l-3.439-9.51C341.344,57.297,348.391,60.894,354.071,63z"/>
		<path d="M248.93,63c5.68-2.107,12.727-5.703,17.094-9.51L262.584,63l3.439,9.51C261.657,68.704,254.61,65.107,248.93,63z"/>
	</g>
</g>
<line fill="none" stroke="#000000" stroke-width="2" stroke-dasharray="12,6" x1="72" y1="90" x2="180" y2="198"/>
<line fill="none" stroke="#000000" stroke-width="2" stroke-dasharray="12,6" x1="360" y1="99" x2="261" y2="198"/>
</svg>
